<?xml version="1.0" encoding="UTF-8"?>
<!DOCTYPE svg PUBLIC "-//W3C//DTD SVG 1.1//EN" "http://www.w3.org/Graphics/SVG/1.1/DTD/svg11.dtd">
<!-- Creator: CorelDRAW 2021 (64-Bit) -->
<svg xmlns="http://www.w3.org/2000/svg" xml:space="preserve" width="8.26667in" height="8.26667in" version="1.1" style="shape-rendering:geometricPrecision; text-rendering:geometricPrecision; image-rendering:optimizeQuality; fill-rule:evenodd; clip-rule:evenodd"
viewBox="0 0 4937.7 4937.7"
 xmlns:xlink="http://www.w3.org/1999/xlink"
 xmlns:xodm="http://www.corel.com/coreldraw/odm/2003">
 <defs>
  <style type="text/css">
   <![CDATA[
    .fil1 {fill:none}
    .fil0 {fill:black;fill-rule:nonzero}
   ]]>
  </style>
   <clipPath id="id0">
    <path d="M-0 0l4937.7 0 0 4937.7 -4937.7 0 0 -4937.7z"/>
   </clipPath>
 </defs>
 <g id="Layer_x0020_1">
  <metadata id="CorelCorpID_0Corel-Layer"/>
  <g>
  </g>
  <g style="clip-path:url(#id0)">
   <g>
    <g id="_2098926378032">
     <g>
      <path class="fil0" d="M2690.18 908.15c-318.76,49.19 -530.63,218.5 -610.09,487.13 -17.03,60.54 -20.81,101.21 -24.59,276.2l-4.73 206.2 -207.15 0 -207.15 0 0 297.95 0 297.95 208.09 0 208.09 0 0 785.08 0 785.08 312.14 0 312.14 0 0 -785.08 0 -785.08 278.09 0 279.03 0 5.68 -40.67c4.73,-36.89 61.48,-541.99 61.48,-551.44 0,-1.89 -125.8,-3.78 -279.98,-3.78l-279.03 0 2.84 -174.99c2.84,-152.28 4.73,-176.88 19.86,-191.07 15.13,-15.13 42.57,-17.03 276.2,-19.86l260.12 -2.84 0 -297.01 0 -297.95 -266.74 0.95c-163.64,0.95 -297.95,5.68 -344.3,13.24l-0.01 -0.01z"/>
     </g>
    </g>
   </g>
  </g>
  <polygon class="fil1" points="-0,0 4937.7,0 4937.7,4937.7 -0,4937.7 "/>
 </g>
</svg>
