<?xml version="1.0" encoding="UTF-8"?>
<!DOCTYPE svg PUBLIC "-//W3C//DTD SVG 1.1//EN" "http://www.w3.org/Graphics/SVG/1.1/DTD/svg11.dtd">
<!-- Creator: CorelDRAW 2021 (64-Bit) -->
<svg xmlns="http://www.w3.org/2000/svg" xml:space="preserve" width="8.26667in" height="8.26667in" version="1.1" style="shape-rendering:geometricPrecision; text-rendering:geometricPrecision; image-rendering:optimizeQuality; fill-rule:evenodd; clip-rule:evenodd"
viewBox="0 0 1742.42 1742.42"
 xmlns:xlink="http://www.w3.org/1999/xlink"
 xmlns:xodm="http://www.corel.com/coreldraw/odm/2003">
 <defs>
  <style type="text/css">
   <![CDATA[
    .fil1 {fill:none}
    .fil0 {fill:black;fill-rule:nonzero}
   ]]>
  </style>
   <clipPath id="id0">
    <path d="M-0 0l1742.42 0 0 1742.42 -1742.42 0 0 -1742.42z"/>
   </clipPath>
 </defs>
 <g id="Layer_x0020_1">
  <metadata id="CorelCorpID_0Corel-Layer"/>
  <g>
  </g>
  <g style="clip-path:url(#id0)">
   <g>
    <g id="_2099041226016">
     <g>
      <g>
       <path class="fil0" d="M1054.3 382.97l-366.18 0c-168.5,0 -305.15,136.65 -305.15,305.15l0 366.18c0,168.5 136.65,305.15 305.15,305.15l366.18 0c168.5,0 305.15,-136.65 305.15,-305.15l0 -366.18c0,-168.5 -136.65,-305.15 -305.15,-305.15zm213.61 671.33c0,117.79 -95.82,213.61 -213.61,213.61l-366.18 0c-117.79,0 -213.61,-95.82 -213.61,-213.61l0 -366.18c0,-117.79 95.82,-213.61 213.61,-213.61l366.18 0c117.79,0 213.61,95.82 213.61,213.61l0 366.18z"/>
      </g>
     </g>
     <g>
      <g>
       <path class="fil0" d="M871.21 627.09c-134.82,0 -244.12,109.31 -244.12,244.12 0,134.82 109.31,244.12 244.12,244.12 134.82,0 244.12,-109.31 244.12,-244.12 0,-134.82 -109.31,-244.12 -244.12,-244.12zm0 396.7c-84.1,0 -152.58,-68.48 -152.58,-152.58 0,-84.16 68.48,-152.58 152.58,-152.58 84.1,0 152.58,68.41 152.58,152.58 0,84.1 -68.48,152.58 -152.58,152.58z"/>
      </g>
     </g>
     <g>
      <g>
       <circle class="fil0" cx="1133.64" cy="608.78" r="32.53"/>
      </g>
     </g>
     <g>
     </g>
     <g>
     </g>
     <g>
     </g>
     <g>
     </g>
     <g>
     </g>
     <g>
     </g>
     <g>
     </g>
     <g>
     </g>
     <g>
     </g>
     <g>
     </g>
     <g>
     </g>
     <g>
     </g>
     <g>
     </g>
     <g>
     </g>
     <g>
     </g>
    </g>
   </g>
  </g>
  <polygon class="fil1" points="-0,0 1742.42,0 1742.42,1742.42 -0,1742.42 "/>
 </g>
</svg>
