<?xml version="1.0" encoding="UTF-8"?>
<!DOCTYPE svg PUBLIC "-//W3C//DTD SVG 1.1//EN" "http://www.w3.org/Graphics/SVG/1.1/DTD/svg11.dtd">
<!-- Creator: CorelDRAW 2021 (64-Bit) -->
<svg xmlns="http://www.w3.org/2000/svg" xml:space="preserve" width="8.26667in" height="8.26667in" version="1.1" style="shape-rendering:geometricPrecision; text-rendering:geometricPrecision; image-rendering:optimizeQuality; fill-rule:evenodd; clip-rule:evenodd"
viewBox="0 0 4561.93 4561.93"
 xmlns:xlink="http://www.w3.org/1999/xlink"
 xmlns:xodm="http://www.corel.com/coreldraw/odm/2003">
 <defs>
  <style type="text/css">
   <![CDATA[
    .fil1 {fill:none}
    .fil0 {fill:#010002;fill-rule:nonzero}
   ]]>
  </style>
   <clipPath id="id0">
    <path d="M-0 0l4561.93 0 0 4561.93 -4561.93 0 0 -4561.93z"/>
   </clipPath>
 </defs>
 <g id="Layer_x0020_1">
  <metadata id="CorelCorpID_0Corel-Layer"/>
  <g>
  </g>
  <g style="clip-path:url(#id0)">
   <g>
    <g id="_2099041460992">
     <g>
      <g>
       <path class="fil0" d="M3906.87 1272.78c-119.69,53.03 -248.11,89 -383.03,105.06 137.77,-82.5 243.23,-213.36 293.22,-368.81 -129.23,76.4 -271.88,131.88 -423.88,161.95 -121.71,-129.84 -294.84,-210.72 -486.87,-210.72 -368.4,0 -667.11,298.7 -667.11,666.9 0,52.22 5.89,103.22 17.27,152 -554.33,-27.84 -1045.87,-293.43 -1374.85,-696.99 -57.51,98.35 -90.22,212.95 -90.22,335.28 0,231.45 117.86,435.66 296.68,555.14 -109.32,-3.66 -212.14,-33.73 -302.16,-83.72l0 8.33c0,323.09 230.02,592.73 535.03,654.1 -55.88,15.04 -114.81,23.37 -175.77,23.37 -43.07,0 -84.73,-4.26 -125.58,-12.39 84.93,265.18 331.22,458.01 623.02,463.3 -228.2,178.82 -515.93,285.09 -828.45,285.09 -53.85,0 -106.88,-3.25 -159.11,-9.14 295.25,189.59 645.77,300.13 1022.5,300.13 1227.13,0 1897.89,-1016.41 1897.89,-1897.89l-2.24 -86.36c131.06,-93.48 244.45,-210.92 333.65,-344.63z"/>
      </g>
     </g>
     <g>
     </g>
     <g>
     </g>
     <g>
     </g>
     <g>
     </g>
     <g>
     </g>
     <g>
     </g>
     <g>
     </g>
     <g>
     </g>
     <g>
     </g>
     <g>
     </g>
     <g>
     </g>
     <g>
     </g>
     <g>
     </g>
     <g>
     </g>
     <g>
     </g>
    </g>
   </g>
  </g>
  <polygon class="fil1" points="-0,0 4561.93,0 4561.93,4561.93 -0,4561.93 "/>
 </g>
</svg>
